# Blender v2.92.0 OBJ File: ''
# www.blender.org
mtllib BalconyEdge.mtl
o Cube
v 0.062500 0.031250 -0.500000
v 0.062500 -0.031250 -0.500000
v 0.062500 0.031250 0.500000
v 0.062500 -0.031250 0.500000
v 0.000000 0.031250 -0.500000
v 0.000000 -0.031250 -0.500000
v 0.000000 0.031250 0.500000
v 0.000000 -0.031250 0.500000
v 0.000000 -0.031250 0.000000
v 0.062500 0.031250 0.000000
v 0.000000 0.031250 0.000000
v 0.062500 -0.031250 0.000000
vt 0.468750 0.522013
vt 0.468750 0.547170
vt 0.218750 0.547170
vt 0.218750 0.522013
vt 0.375000 0.496855
vt 0.375000 0.522013
vt 0.406250 0.522013
vt 0.406250 0.496855
vt 0.531250 0.547170
vt 0.531250 0.522013
vt 0.781250 0.522013
vt 0.781250 0.547170
vt 0.468750 0.522013
vt 0.468750 0.547170
vt 0.218750 0.547170
vt 0.218750 0.522013
vt 0.468750 0.522013
vt 0.468750 0.547170
vt 0.218750 0.547170
vt 0.218750 0.522013
vt 0.406250 0.496855
vt 0.406250 0.522013
vt 0.375000 0.522013
vt 0.375000 0.496855
vt 0.781250 0.522013
vt 0.781250 0.547170
vt 0.531250 0.547170
vt 0.531250 0.522013
vt 0.781250 0.522013
vt 0.781250 0.547170
vt 0.531250 0.547170
vt 0.531250 0.522013
vt 0.218750 0.547170
vt 0.218750 0.522013
vt 0.468750 0.522013
vt 0.468750 0.547170
vt 0.781250 0.522013
vt 0.781250 0.547170
vt 0.531250 0.547170
vt 0.531250 0.522013
vn 0.0000 1.0000 0.0000
vn 0.0000 0.0000 1.0000
vn -1.0000 0.0000 0.0000
vn 0.0000 -1.0000 0.0000
vn 1.0000 0.0000 0.0000
vn 0.0000 0.0000 -1.0000
usemtl None
s off
f 10/1/1 11/2/1 7/3/1 3/4/1
f 4/5/2 3/6/2 7/7/2 8/8/2
f 9/9/3 11/10/3 5/11/3 6/12/3
f 9/13/4 12/14/4 4/15/4 8/16/4
f 12/17/5 10/18/5 3/19/5 4/20/5
f 6/21/6 5/22/6 1/23/6 2/24/6
f 2/25/5 1/26/5 10/27/5 12/28/5
f 6/29/4 2/30/4 12/31/4 9/32/4
f 8/33/3 7/34/3 11/35/3 9/36/3
f 1/37/1 5/38/1 11/39/1 10/40/1
