# Blender v2.92.0 OBJ File: ''
# www.blender.org
mtllib Corner.mtl
o Plane_Plane.001
v 0.046875 0.125000 0.500000
v 0.046875 -0.000000 0.500000
v 0.046875 -0.000000 0.453125
v 0.046875 0.125000 0.453125
v 0.000000 0.125000 0.453125
v 0.046875 -0.000000 0.453125
v 0.000000 -0.000000 0.453125
v 0.000000 0.125000 0.500000
v 0.046875 0.125000 0.500000
vt -0.000000 0.080808
vt 0.000000 -0.000000
vt 0.046875 0.000000
vt 0.046875 0.080808
vt 1.000000 0.080808
vt 0.953125 0.080808
vt 0.953125 0.000000
vt 1.000000 0.000000
vt 0.062500 0.080808
vt 0.062500 0.111111
vt 0.015625 0.111111
vt 0.015625 0.080808
vn 1.0000 0.0000 0.0000
vn -0.7500 0.6597 -0.0475
vn 0.7497 0.6601 -0.0471
vn 0.0000 0.0000 -1.0000
vn 0.0000 0.7071 0.7071
vn -0.0003 0.7071 0.7071
usemtl Material.002
s 1
f 1/1/1 2/2/1 3/3/1 4/4/1
f 5/5/2 4/6/3 6/7/4 7/8/4
f 4/9/3 5/10/2 8/11/5 9/12/6
