# Blender v2.92.0 OBJ File: ''
# www.blender.org
mtllib Door.mtl
o Plane
v 0.000000 1.281250 0.281250
v -0.000000 0.000000 0.281250
v 0.000000 1.281250 -0.281250
v -0.000000 0.000000 -0.281250
v 0.046875 1.281250 0.281250
v 0.046875 -0.000000 0.281250
v 0.046875 1.281250 -0.281250
v 0.046875 -0.000000 -0.281250
vt -0.000000 0.964706
vt 0.923077 0.964706
vt 0.923077 0.000000
vt -0.000000 -0.000000
vt -0.000000 0.964706
vt 0.000000 0.000000
vt 0.923077 0.000000
vt 0.923077 0.964706
vt 0.000000 1.000000
vt 0.923077 1.000000
vt 1.000000 0.000000
vt 1.000000 0.964706
vt 1.000000 0.964706
vt 1.000000 -0.000000
vt 0.923077 0.000000
vt 0.923077 0.964706
vn -1.0000 0.0000 0.0000
vn 1.0000 -0.0000 0.0000
vn 0.0000 1.0000 0.0000
vn 0.0000 0.0000 -1.0000
vn 0.0000 0.0000 1.0000
usemtl None
s off
f 1/1/1 3/2/1 4/3/1 2/4/1
f 5/5/2 6/6/2 8/7/2 7/8/2
f 3/2/3 1/1/3 5/9/3 7/10/3
f 4/11/4 3/12/4 7/8/4 8/7/4
f 1/13/5 2/14/5 6/15/5 5/16/5
