# Blender v2.92.0 OBJ File: ''
# www.blender.org
mtllib LightBulb.mtl
o Cube
v 0.007812 0.500000 -0.007812
v 0.007812 0.250000 -0.007812
v 0.007812 0.500000 0.007812
v 0.007812 0.250000 0.007812
v -0.007812 0.500000 -0.007812
v -0.007812 0.250000 -0.007812
v -0.007812 0.500000 0.007812
v -0.007812 0.250000 0.007812
v 0.023438 0.250000 -0.023438
v 0.023438 0.203125 -0.023438
v -0.023438 0.203125 -0.023438
v -0.023438 0.250000 -0.023438
v -0.023438 0.250000 0.023438
v -0.023438 0.203125 0.023438
v 0.023438 0.203125 0.023438
v 0.023438 0.250000 0.023438
v 0.023438 0.171875 0.023438
v 0.023438 0.156250 0.023438
v 0.023438 0.156250 -0.023438
v 0.023438 0.171875 -0.023438
v -0.023438 0.156250 -0.023438
v -0.023438 0.171875 -0.023438
v -0.023438 0.171875 0.023438
v -0.023438 0.156250 0.023438
v -0.039062 0.203125 0.039062
v -0.039062 0.171875 0.039062
v 0.039062 0.171875 0.039062
v 0.039062 0.203125 0.039062
v -0.039062 0.203125 -0.039062
v -0.039062 0.171875 -0.039062
v 0.039062 0.171875 -0.039062
v 0.039062 0.203125 -0.039062
vt -0.000000 1.000000
vt 0.000000 0.000000
vt 0.166667 0.000000
vt 0.166667 1.000000
vt 0.000000 1.000000
vt 0.000000 0.000000
vt 0.166667 -0.000000
vt 0.166667 1.000000
vt -0.000000 1.000000
vt 0.000000 -0.000000
vt 0.166667 0.000000
vt 0.166667 1.000000
vt 0.000000 1.000000
vt 0.000000 0.000000
vt 0.166667 0.000000
vt 0.166667 1.000000
vt 0.166667 0.687500
vt 1.000000 0.687500
vt 1.000000 1.000000
vt 0.166667 1.000000
vt 0.833333 0.375000
vt 0.833333 0.187500
vt 0.333333 0.187500
vt 0.333333 0.375000
vt 1.000000 0.062500
vt 0.166667 0.062500
vt 0.166667 0.187500
vt 1.000000 0.187500
vt 0.833333 0.062500
vt 0.333333 0.062500
vt 0.333333 -0.000000
vt 0.833333 0.000000
vt 1.000000 0.187500
vt 1.000000 0.062500
vt 0.166667 0.062500
vt 0.166667 0.187500
vt 1.000000 0.687500
vt 0.166667 0.687500
vt 0.166667 1.000000
vt 1.000000 1.000000
vt 0.166667 0.062500
vt 0.166667 0.187500
vt 1.000000 0.187500
vt 1.000000 0.062500
vt 1.000000 0.062500
vt 1.000000 0.187500
vt 0.333333 0.062500
vt 0.333333 0.000000
vt 0.833333 0.000000
vt 0.833333 0.062500
vt 0.333333 -0.000000
vt 0.833333 0.000000
vt 0.833333 0.062500
vt 0.333333 0.062500
vt 0.333333 0.375000
vt 0.333333 0.562500
vt 0.833333 0.562500
vt 0.833333 0.375000
vt 0.333333 0.000000
vt 0.833333 0.000000
vt 0.833333 0.062500
vt 0.333333 0.062500
vt 0.333333 0.187500
vt 0.333333 0.375000
vt 0.833333 0.375000
vt 0.833333 0.187500
vt 0.833333 0.187500
vt 0.333333 0.187500
vt 0.833333 0.187500
vt 0.333333 0.187500
vt 0.333333 0.375000
vt 0.833333 0.375000
vt 0.333333 0.937500
vt 0.333333 0.750000
vt 0.833333 0.750000
vt 0.833333 0.937500
vn 0.0000 0.0000 1.0000
vn -1.0000 0.0000 0.0000
vn 1.0000 0.0000 0.0000
vn 0.0000 0.0000 -1.0000
vn 0.0000 1.0000 0.0000
vn 0.0000 -1.0000 0.0000
usemtl Material.001
s off
f 4/1/1 3/2/1 7/3/1 8/4/1
f 8/5/2 7/6/2 5/7/2 6/8/2
f 2/9/3 1/10/3 3/11/3 4/12/3
f 6/13/4 5/14/4 1/15/4 2/16/4
f 32/17/5 29/18/5 25/19/5 28/20/5
f 16/21/3 15/22/3 10/23/3 9/24/3
f 29/25/4 32/26/4 31/27/4 30/28/4
f 24/29/1 18/30/1 17/31/1 23/32/1
f 26/33/2 25/34/2 29/35/2 30/36/2
f 27/37/6 26/38/6 30/39/6 31/40/6
f 27/41/1 28/42/1 25/43/1 26/44/1
f 32/26/3 28/45/3 27/46/3 31/27/3
f 20/47/4 19/48/4 21/49/4 22/50/4
f 21/51/2 24/52/2 23/53/2 22/54/2
f 16/55/5 9/56/5 12/57/5 13/58/5
f 20/59/3 17/60/3 18/61/3 19/62/3
f 11/63/4 12/64/4 9/65/4 10/66/4
f 13/58/1 14/67/1 15/68/1 16/55/1
f 11/69/2 14/70/2 13/71/2 12/72/2
f 24/73/6 21/74/6 19/75/6 18/76/6
