# Blender v2.92.0 OBJ File: ''
# www.blender.org
mtllib Pillar.mtl
o Cube
v 0.062500 1.437500 -0.062500
v 0.062500 0.125000 -0.062500
v -0.062500 0.125000 0.062500
v -0.062500 1.437500 0.062500
v 0.062500 1.437500 0.062500
v 0.062500 0.125000 0.062500
v -0.062500 1.437500 -0.062500
v -0.062500 0.125000 -0.062500
v -0.109375 0.125000 -0.109375
v -0.109375 0.000000 -0.109375
v -0.109375 1.500000 -0.109375
v -0.109375 1.437500 -0.109375
v -0.109375 1.437500 0.109375
v -0.109375 1.500000 0.109375
v -0.109375 0.000000 0.109375
v -0.109375 0.125000 0.109375
v 0.109375 0.125000 -0.109375
v 0.109375 0.000000 -0.109375
v 0.109375 1.500000 -0.109375
v 0.109375 1.437500 -0.109375
v 0.109375 0.125000 0.109375
v 0.109375 0.000000 0.109375
v 0.109375 1.500000 0.109375
v 0.109375 1.437500 0.109375
vt 0.363636 0.229167
vt 0.363636 0.083333
vt 1.000000 0.083333
vt 0.999904 0.229219
vt 0.636364 0.083333
vt 0.000000 0.083333
vt 0.000000 0.000000
vt 0.636364 0.000000
vt 0.363636 0.083333
vt 0.363636 0.958333
vt 0.000000 0.958333
vt 0.000000 0.083333
vt 0.363636 0.083333
vt 0.363636 0.958333
vt 0.000000 0.958333
vt 0.000000 0.083333
vt 0.363636 0.083333
vt 0.363636 0.958333
vt 0.000000 0.958333
vt 0.000000 0.083333
vt 0.363636 0.083333
vt 0.363636 0.958333
vt 0.000000 0.958333
vt 0.000000 0.083333
vt -0.000000 1.000000
vt 0.000000 0.958333
vt 0.636364 0.958333
vt 0.636364 1.000000
vt 0.636364 0.000000
vt 0.636364 0.083333
vt 0.000000 0.083333
vt 0.000000 0.000000
vt 0.000000 0.083333
vt 0.000000 0.000000
vt 0.636364 0.000000
vt 0.636364 0.083333
vt 0.636364 0.958333
vt 0.636364 1.000000
vt 0.000000 1.000000
vt 0.000000 0.958333
vt 0.000000 1.000000
vt 0.000000 0.958333
vt 0.636364 0.958333
vt 0.636364 1.000000
vt 0.636364 0.000000
vt 0.636364 0.083333
vt 0.000000 0.083333
vt 0.000000 0.000000
vt 0.363636 0.083333
vt 0.363636 0.229167
vt 0.999904 0.229410
vt 1.000000 0.083333
vt 0.636364 1.000000
vt -0.000000 1.000000
vt 0.000000 0.958333
vt 0.636364 0.958333
vn 0.0000 -1.0000 0.0000
vn 0.0000 0.0000 1.0000
vn 0.0000 0.0000 -1.0000
vn 1.0000 0.0000 0.0000
vn -1.0000 0.0000 0.0000
vn 0.0000 1.0000 0.0000
usemtl None
s off
f 20/1/1 24/2/1 13/3/1 12/4/1
f 21/5/2 16/6/2 15/7/2 22/8/2
f 8/9/3 7/10/3 1/11/3 2/12/3
f 2/13/4 1/14/4 5/15/4 6/16/4
f 3/17/5 4/18/5 7/19/5 8/20/5
f 6/21/2 5/22/2 4/23/2 3/24/2
f 19/25/3 20/26/3 12/27/3 11/28/3
f 10/29/3 9/30/3 17/31/3 18/32/3
f 9/33/5 10/34/5 15/35/5 16/36/5
f 20/37/4 19/38/4 23/39/4 24/40/4
f 11/41/5 12/42/5 13/43/5 14/44/5
f 18/45/4 17/46/4 21/47/4 22/48/4
f 21/49/6 17/50/6 9/51/6 16/52/6
f 23/53/2 14/54/2 13/55/2 24/56/2
