# Blender v2.92.0 OBJ File: ''
# www.blender.org
mtllib Table01.mtl
o Cube
v 0.250000 0.500000 -0.250000
v 0.250000 0.437500 -0.250000
v 0.250000 0.500000 0.250000
v 0.250000 0.437500 0.250000
v -0.250000 0.500000 -0.250000
v -0.250000 0.437500 -0.250000
v -0.250000 0.500000 0.250000
v -0.250000 0.437500 0.250000
v -0.031250 0.437500 -0.031250
v -0.031250 0.437500 0.031250
v 0.031250 0.437500 -0.031250
v 0.031250 0.437500 0.031250
v -0.031250 0.000000 -0.031250
v -0.031250 0.000000 0.031250
v 0.031250 0.000000 -0.031250
v 0.031250 0.000000 0.031250
vt -0.000000 0.888889
vt 0.000000 -0.000000
vt 0.888889 0.000000
vt 0.888889 0.888889
vt 1.000000 0.777778
vt 0.888889 0.777778
vt 0.888889 0.000000
vt 1.000000 0.000000
vt 1.000000 0.777778
vt 0.888889 0.777778
vt 0.888889 0.000000
vt 1.000000 0.000000
vt 1.000000 0.777778
vt 0.888889 0.777778
vt 0.888889 0.000000
vt 1.000000 0.000000
vt 1.000000 0.777778
vt 0.888889 0.777778
vt 0.888889 0.000000
vt 1.000000 0.000000
vt 0.888889 0.861111
vt 0.888889 1.000000
vt 0.000000 1.000000
vt 0.000000 0.861111
vt 0.000000 0.861111
vt 0.888889 0.861111
vt 0.888889 1.000000
vt 0.000000 1.000000
vt 0.888889 0.861111
vt 0.888889 1.000000
vt -0.000000 1.000000
vt -0.000000 0.861111
vt -0.000000 0.861111
vt 0.888889 0.861111
vt 0.888889 1.000000
vt -0.000000 1.000000
vt 0.000000 0.000000
vt 0.000000 0.888889
vt 0.888889 0.888889
vt 0.888889 0.000000
vn 0.0000 1.0000 0.0000
vn 1.0000 0.0000 0.0000
vn 0.0000 0.0000 -1.0000
vn -1.0000 0.0000 0.0000
vn 0.0000 0.0000 1.0000
vn 0.0000 -1.0000 0.0000
usemtl None
s off
f 1/1/1 5/2/1 7/3/1 3/4/1
f 11/5/2 12/6/2 16/7/2 15/8/2
f 9/9/3 11/10/3 15/11/3 13/12/3
f 10/13/4 9/14/4 13/15/4 14/16/4
f 12/17/5 10/18/5 14/19/5 16/20/5
f 8/21/4 7/22/4 5/23/4 6/24/4
f 8/25/5 4/26/5 3/27/5 7/28/5
f 2/29/2 1/30/2 3/31/2 4/32/2
f 2/33/3 6/34/3 5/35/3 1/36/3
f 6/37/6 2/38/6 4/39/6 8/40/6
