# Blender v2.92.0 OBJ File: 'Temp.blend'
# www.blender.org
mtllib Window.mtl
o Plane_Plane.001
v 0.000000 1.500000 1.000000
v 0.046875 0.000000 1.000000
v 0.000000 1.500000 -1.000000
v 0.046875 0.000000 -1.000000
v 0.046875 0.125000 1.000000
v 0.046875 0.125000 -1.000000
v 0.000000 0.125000 -1.000000
v 0.000000 0.125000 1.000000
v 0.000000 1.500000 0.500000
v 0.000000 0.437500 0.500000
v 0.046875 0.125000 0.500000
v 0.000000 0.125000 0.500000
v 0.000000 0.500000 0.500000
v 0.000000 1.250000 0.500000
v 0.000000 0.437500 -0.500000
v 0.046875 0.125000 -0.500000
v 0.000000 0.125000 -0.500000
v 0.000000 0.500000 -0.500000
v 0.000000 1.250000 -0.500000
v 0.000000 1.500000 -0.500000
v -0.125000 0.500000 0.500000
v -0.125000 1.250000 0.500000
v -0.125000 0.500000 -0.500000
v -0.125000 1.250000 -0.500000
v 0.000000 1.250000 -0.500000
v 0.000000 0.125000 -1.000000
v 0.000000 0.125000 -0.500000
v 0.000000 0.125000 -1.000000
v 0.000000 0.125000 -0.500000
v 0.062500 0.437500 0.500000
v 0.062500 0.500000 0.500000
v 0.062500 0.437500 -0.500000
v 0.062500 0.500000 -0.500000
v 0.000000 1.312500 0.500000
v 0.000000 1.312500 -0.500000
v 0.062500 1.250000 0.500000
v 0.062500 1.250000 -0.500000
v 0.062500 1.312500 0.500000
v 0.062500 1.312500 -0.500000
v 0.000000 1.250000 -0.562500
v 0.000000 1.312500 -0.562500
v 0.062500 1.250000 -0.562500
v 0.062500 1.312500 -0.562500
v 0.000000 1.250000 0.562500
v 0.000000 1.312500 0.562500
v 0.062500 1.250000 0.562500
v 0.062500 1.312500 0.562500
v 0.062500 0.625000 0.500000
v 0.062500 0.625000 -0.500000
v 0.062500 1.250000 0.250000
v 0.062500 1.250000 -0.250000
v 0.062500 0.625000 0.250000
v 0.062500 0.625000 -0.250000
vt 1.000000 0.069182
vt 1.000000 0.622642
vt 0.750000 0.622642
vt 0.750000 0.069182
vt 0.000000 0.622642
vt 0.000000 0.069182
vt 0.250000 0.069182
vt 0.250000 0.622642
vt 0.000000 0.050314
vt 1.000000 0.050314
vt 1.000000 0.069182
vt 0.250000 0.522013
vt 0.750000 0.522013
vt 0.750000 0.547170
vt 0.625000 0.547170
vt 0.375000 0.547170
vt 0.250000 0.547170
vt 0.500000 1.000000
vt 0.500000 0.698113
vt 0.562500 0.698113
vt 0.562500 1.000000
vt 0.250000 0.194969
vt 0.750000 0.069182
vt 0.750000 0.194969
vt -0.000000 1.000000
vt -0.000000 0.698113
vt 0.500000 0.698113
vt 0.500000 1.000000
vt 0.562500 0.698113
vt 0.562500 1.000000
vt -0.000000 0.622642
vt 0.500000 0.622642
vt 1.000000 0.672956
vt 0.500000 0.672956
vt 0.500000 0.622642
vt 1.000000 0.622642
vt 0.750000 0.111111
vt 1.000000 0.111111
vt 1.000000 0.111111
vt 0.750000 0.111111
vt 1.000000 0.111111
vt 0.750000 0.111111
vt 0.000000 0.000000
vt 1.000000 -0.000000
vt 0.250000 0.220126
vt 0.250000 0.194969
vt 0.750000 0.194969
vt 0.750000 0.220126
vt 0.250000 0.220126
vt 0.250000 0.245283
vt 0.281250 0.245283
vt 0.281250 0.220126
vt 0.750000 0.220126
vt 0.250000 0.220126
vt 0.250000 0.245283
vt 0.250000 0.220126
vt 0.281250 0.220126
vt 0.281250 0.245283
vt 0.250000 0.547170
vt 0.750000 0.547170
vt 0.250000 0.547170
vt 0.250000 0.522013
vt 0.375000 0.522013
vt 0.625000 0.522013
vt 0.750000 0.522013
vt 0.750000 0.547170
vt 0.250000 0.522013
vt 0.750000 0.522013
vt 0.218750 0.547170
vt 0.218750 0.522013
vt 0.375000 0.496855
vt 0.375000 0.522013
vt 0.406250 0.522013
vt 0.406250 0.496855
vt 0.750000 0.522013
vt 0.781250 0.547170
vt 0.781250 0.522013
vt 0.750000 0.547170
vt 0.781250 0.547170
vt 0.781250 0.522013
vt 0.375000 0.522013
vt 0.375000 0.496855
vt 0.406250 0.496855
vt 0.406250 0.522013
vt 0.218750 0.547170
vt 0.218750 0.522013
vt 0.218750 0.547170
vt 0.218750 0.522013
vt 0.625000 0.270440
vt 0.750000 0.270440
vt 0.250000 0.270440
vt 0.375000 0.270440
vn 1.0000 -0.0000 0.0000
vn 0.0000 1.0000 0.0000
vn 0.0000 -1.0000 0.0000
vn 0.0000 0.0000 -1.0000
vn 0.0000 0.0000 1.0000
usemtl None
s off
f 28/1/1 3/2/1 20/3/1 29/4/1
f 1/5/1 8/6/1 12/7/1 9/8/1
f 8/6/2 5/9/2 6/10/2 7/11/2
f 14/12/3 19/13/3 37/14/3 51/15/3 50/16/3 36/17/3
f 14/18/4 13/19/4 21/20/4 22/21/4
f 10/22/1 12/7/1 17/23/1 15/24/1
f 22/25/1 21/26/1 23/27/1 24/28/1
f 18/29/5 19/30/5 24/28/5 23/27/5
f 31/31/2 33/32/2 23/27/2 21/26/2
f 19/33/3 14/34/3 22/35/3 24/36/3
f 17/37/5 7/38/5 26/39/5 27/40/5
f 27/40/5 26/39/5 28/41/5 29/42/5
f 2/43/1 4/44/1 6/10/1 5/9/1
f 31/45/1 30/46/1 32/47/1 33/48/1
f 15/49/4 18/50/4 33/51/4 32/52/4
f 10/22/3 15/24/3 32/53/3 30/54/3
f 13/55/5 10/56/5 30/57/5 31/58/5
f 9/8/1 34/59/1 35/60/1 20/3/1
f 38/61/1 36/62/1 50/63/1 51/64/1 37/65/1 39/66/1
f 35/60/2 34/59/2 38/67/2 39/68/2
f 38/67/2 34/59/2 45/69/2 47/70/2
f 40/71/4 41/72/4 43/73/4 42/74/4
f 35/75/2 39/66/2 43/76/2 41/77/2
f 37/65/3 19/78/3 40/79/3 42/80/3
f 39/66/1 37/65/1 42/80/1 43/76/1
f 45/81/5 44/82/5 46/83/5 47/84/5
f 14/12/3 36/17/3 46/85/3 44/86/3
f 36/62/1 38/61/1 47/87/1 46/88/1
f 37/65/1 51/64/1 53/89/1 49/90/1
f 48/91/1 52/92/1 50/63/1 36/62/1
l 16 6
l 5 11
l 11 16
l 19 25
l 25 29
